<?xml version="1.0" encoding="UTF-8" standalone="no"?>
<svg
   width="80mm"
   height="80mm"
   viewBox="0 0 80 80"
   version="1.1"
   id="svg1"
   xmlns="http://www.w3.org/2000/svg"
   xmlns:svg="http://www.w3.org/2000/svg">
  <g>
    <circle
       style="fill:#f57231;fill-opacity:1;stroke-width:42.6239;stroke-linejoin:round;stroke-miterlimit:0"
       id="path1"
       cx="39.500004"
       cy="39.5"
       r="39.5"/>
    <path
       id="path2"
       style="fill:#ffffff;fill-opacity:1;stroke:none;stroke-width:2.4;stroke-linejoin:round;stroke-miterlimit:0;stroke-dasharray:none;stroke-opacity:1"
       d="m 39.499748,8.17633 c -0.510808,1.47773 -1.021311,2.95612 -1.333769,4.83329 -0.285319,-0.32103 -0.594485,-0.49124 -0.906404,-0.64337 -0.03657,0.91359 -0.07478,1.83014 -0.168466,2.83291 -0.66374,-0.4385 -1.42073,-0.71469 -2.233455,-0.89349 -0.431796,1.68167 -0.642683,3.42338 -0.721403,5.20072 -0.725485,-0.37475 -1.50685,-0.6444 -2.336808,-0.82321 -0.889651,1.3851 -1.432775,3.38608 -1.617473,6.02444 -1.811244,0.0447 -2.592046,0.18239 -3.428731,0.31522 0.211605,3.5572 0.675655,7.14053 2.116667,10.8257 -5.471657,-4.02881 -11.210735,-2.31594 -16.839799,-2.96209 2.514784,1.85972 3.519909,5.78635 4.758882,9.30227 l -1.370975,0.82011 c 1.471041,1.87029 2.949629,3.73578 4.723742,5.42085 l -0.753959,1.43196 c 2.28111,2.69024 4.998585,5.13582 7.854301,7.53132 -0.42527,0.6332 -0.92747,1.33705 -1.241785,2.05156 1.497428,0.45343 6.554481,2.07183 8.715748,2.00763 1.536242,-0.16421 2.66337,-1.26469 3.997688,-2.35903 L 38.40214,70.82367 h 1.097608 1.097607 L 40.286263,59.09312 c 1.334319,1.09434 2.46093,2.19482 3.997172,2.35903 2.161267,0.0642 7.21832,-1.5542 8.715747,-2.00763 -0.314314,-0.71451 -0.815997,-1.41836 -1.241268,-2.05156 2.855717,-2.3955 5.573192,-4.84108 7.854301,-7.53132 l -0.754476,-1.43196 c 1.774114,-1.68507 3.252702,-3.55056 4.723743,-5.42085 l -1.370976,-0.82011 c 1.238974,-3.51592 2.244615,-7.44255 4.7594,-9.30227 -5.629065,0.64615 -11.368143,-1.06672 -16.839799,2.96209 1.441011,-3.68517 1.905062,-7.2685 2.116666,-10.8257 -0.836685,-0.13283 -1.617487,-0.27049 -3.428731,-0.31522 -0.184698,-2.63836 -0.728338,-4.63934 -1.617989,-6.02444 -0.829958,0.17881 -1.611323,0.44846 -2.336808,0.82321 -0.07872,-1.77734 -0.289091,-3.51905 -0.720886,-5.20072 -0.812726,0.1788 -1.569716,0.45499 -2.233456,0.89349 -0.09369,-1.00277 -0.132414,-1.91932 -0.168982,-2.83291 -0.311919,0.15213 -0.620569,0.32234 -0.905888,0.64337 -0.312457,-1.87717 -0.823478,-3.35556 -1.334285,-4.83329 z"/>
  </g>
</svg>
