<?xml version="1.0" encoding="UTF-8" standalone="no"?>
<svg
   width="80"
   height="80"
   viewBox="0 0 80 80"
   version="1.1"
   id="svg4"
   xmlns="http://www.w3.org/2000/svg"
   xmlns:svg="http://www.w3.org/2000/svg">
  <path
     id="path1"
     style="fill:#e6e6e6;fill-opacity:1;stroke-width:1.35634"
     d="m 34.06653,14.606366 c -2.184767,0.617911 -3.945327,3.077306 -3.945327,5.46559 v 37.871717 c -2.216642,-1.226018 -5.063459,-1.72133 -8.01326,-0.912157 -5.325824,1.461414 -8.663049,6.181586 -7.5204,10.541307 1.142651,4.359724 6.387558,6.797047 11.713384,5.335634 4.249381,-1.164717 7.177113,-4.462707 7.645453,-7.939696 l 0.1226,-35.787485 27.619749,-7.807288 v 28.240116 c -2.216644,-1.226021 -5.063458,-1.721331 -8.013261,-0.912161 -5.325823,1.461416 -8.663047,6.181588 -7.520398,10.54131 1.14265,4.359723 6.387557,6.797046 11.713383,5.335634 4.249381,-1.164716 7.177111,-4.462709 7.645453,-7.939697 l 0.1226,-46.58871 c 0,-1.79244 -1.049474,-3.1312525 -2.476555,-3.3838124 L 34.06161,14.606366"
     fill="#d9effc" />
</svg>
