<?xml version="1.0" encoding="UTF-8" standalone="no"?>
<svg
   width="80mm"
   height="80mm"
   viewBox="0 0 80 80"
   version="1.1"
   id="svg1"
   xmlns="http://www.w3.org/2000/svg"
   xmlns:svg="http://www.w3.org/2000/svg">
  <g>
    <circle
       style="fill:#83c443;fill-opacity:1;stroke-width:42.6239;stroke-linejoin:round;stroke-miterlimit:0"
       id="path1"
       cx="39.5"
       cy="39.499996"
       r="39.5"/>
    <path
       id="path2"
       style="fill:#ffffff;fill-opacity:1;stroke-width:12.4712;stroke-linejoin:round;stroke-miterlimit:0"
       d="m 39.499995,14.13514 c -3.31369,0 -6.00015,2.68593 -6.00015,5.99963 0,0.39785 0.04084,0.78601 0.11472,1.16221 a 9.5,9.5 0 0 0 -0.22169,0.1664 c -0.33616,-0.18755 -0.69388,-0.3468 -1.07383,-0.47026 -3.15153,-1.02399 -6.53627,0.70044 -7.56027,3.85196 -1.02399,3.15152 0.70046,6.53679 3.85196,7.56078 0.50025,0.16254 1.00578,0.24819 1.50741,0.2775 -0.38857,0.31856 -0.74712,0.68502 -1.05627,1.11053 -1.94775,2.68084 -1.35328,6.43313 1.32757,8.38088 2.47974,1.80164 5.87354,1.4241 7.91063,-0.76378 v 19.33577 c -3.72268,-6.95377 -9.89985,-8.08477 -14.00018,-8.08477 0,11.55007 8.54669,15.27762 15.2001,15.27762 6.65344,0 15.20011,-3.72755 15.20011,-15.27762 -4.10015,0 -10.27694,1.13088 -13.99966,8.08374 V 41.41151 c 2.03714,2.18739 5.43055,2.56477 7.91011,0.76326 2.68083,-1.94774 3.27531,-5.70004 1.32756,-8.38088 -0.30914,-0.42551 -0.66769,-0.79197 -1.05626,-1.11053 0.50155,-0.0293 1.00724,-0.11499 1.5074,-0.2775 3.15152,-1.02399 4.87595,-4.40926 3.85196,-7.56078 -1.024,-3.15152 -4.40874,-4.87595 -7.56026,-3.85196 -0.37732,0.1226 -0.73297,0.28081 -1.06712,0.46664 a 9.5,9.5 0 0 0 -0.22531,-0.18294 c 0.07136,-0.37 0.11162,-0.75121 0.11162,-1.14205 0,-3.3137 -2.68644,-5.99963 -6.00015,-5.99963 z"/>
  </g>
</svg>
