<?xml version="1.0" encoding="UTF-8" standalone="no"?>
<svg
   width="80"
   height="80"
   viewBox="0 0 21.166667 21.166667"
   version="1.1"
   id="svg1"
   xmlns="http://www.w3.org/2000/svg"
   xmlns:svg="http://www.w3.org/2000/svg">
  <path
     style="color:#000000;fill:#f0c900;stroke-linejoin:round;stroke-miterlimit:0;-inkscape-stroke:none"
     d="M 20.637504,10.583337 A 10.054167,10.054167 0 0 1 10.583337,20.637504 10.054167,10.054167 0 0 1 0.52917004,10.583337 10.054167,10.054167 0 0 1 10.583337,0.52917004 10.054167,10.054167 0 0 1 20.637504,10.583337 Z"
     id="path1" />
  <path
     style="color:#000000;fill:#cccccc;stroke-linejoin:round;stroke-miterlimit:0;-inkscape-stroke:none"
     d="M 10.583984,0 C 4.7452425,2.3229138e-8 2.3229137e-8,4.7452425 0,10.583984 c 0,5.838742 4.7452424,10.582032 10.583984,10.582032 5.838742,0 10.582032,-4.74329 10.582032,-10.582032 C 21.166016,4.7452424 16.422726,0 10.583984,0 Z m 0,1.0585937 c 5.266774,0 9.523438,4.2586175 9.523438,9.5253903 0,5.266774 -4.256664,9.523438 -9.523438,9.523438 -5.2667728,0 -9.5253902,-4.256664 -9.5253903,-9.523438 10e-8,-5.2667727 4.2586176,-9.5253902 9.5253903,-9.5253903 z"
     id="path5" />
  <path
     d="M 10.583403,2.2774517 9.0785031,4.9672742 6.4303562,3.390237 6.4721708,6.4721733 3.3902353,6.4303598 4.9674094,9.0785054 2.2774485,10.583265 l 2.6899609,1.504902 -1.5771744,2.648146 3.0819355,-0.04181 -0.041814,3.081934 2.6481466,-1.577035 1.5048989,2.689823 1.504761,-2.689823 2.648147,1.577035 -0.04168,-3.081934 3.081936,0.04181 -1.577173,-2.648146 2.689822,-1.504902 -2.689822,-1.5047596 1.577173,-2.6481456 -3.081936,0.041813 0.04168,-3.0819363 -2.648147,1.5770372 z m 0,2.813326 a 5.492616,5.492616 0 0 1 5.492626,5.4924873 5.492616,5.492616 0 0 1 -5.492626,5.49263 5.492616,5.492616 0 0 1 -5.4926275,-5.49263 5.492616,5.492616 0 0 1 5.4926275,-5.4924873 z"
     style="fill:#ffffff;fill-opacity:0.92697;stroke-width:3.48312;stroke-linejoin:round;stroke-miterlimit:0"
     id="path2" />
  <circle
     style="fill:#ffffff;fill-opacity:1;stroke-width:5.34876;stroke-linejoin:round;stroke-miterlimit:0"
     id="path3"
     cx="10.583333"
     cy="10.583337"
     r="4.9567509" />
</svg>
