<?xml version="1.0" encoding="UTF-8" standalone="no"?>
<svg
   width="80mm"
   height="80mm"
   viewBox="0 0 80 80"
   version="1.1"
   id="svg1"
   xmlns="http://www.w3.org/2000/svg"
   xmlns:svg="http://www.w3.org/2000/svg">
  <g>
    <circle
       style="fill:#65ace0;fill-opacity:1;stroke-width:42.6239;stroke-linejoin:round;stroke-miterlimit:0"
       id="path1"
       cx="39.5"
       cy="39.5"
       r="39.5"/>
    <path
       id="path2"
       style="color:#000000;fill:#ffffff;fill-opacity:1;stroke-linecap:round;stroke-linejoin:round;stroke-miterlimit:0;-inkscape-stroke:none"
       d="m 39.500755,13.5026 v 5.2e-4 a 1.25264,1.25264 0 0 0 -1.25419,1.25419 v 6.73292 l -4.48241,-7.38353 a 1.25,1.25 0 0 0 -0.77153,-0.56431 1.25,1.25 0 0 0 -0.94516,0.1447 1.25,1.25 0 0 0 -0.41961,1.71875 l 6.61871,10.90166 v 10.16734 l -7.18767,-7.187671 -3.03031,-12.390459 a 1.25,1.25 0 0 0 -1.51205,-0.91881 1.25,1.25 0 0 0 -0.77101,0.56638 1.25,1.25 0 0 0 -0.14625,0.94412 l 2.05311,8.392259 -4.7625,-4.7625 a 1.25264,1.25264 0 0 0 -1.77199,-10e-4 1.25264,1.25264 0 0 0 0,1.77354 l 4.76044,4.760951 -8.39019,-2.05156 a 1.25,1.25 0 0 0 -0.94464,0.14625 1.25,1.25 0 0 0 -0.56586,0.77101 1.25,1.25 0 0 0 0.91829,1.51205 l 12.38891,3.028239 7.19026,7.190261 h -10.16527 l -10.90425,-6.61872 a 1.25,1.25 0 0 0 -1.71876,0.419619 1.25,1.25 0 0 0 -0.14469,0.94567 1.25,1.25 0 0 0 0.56431,0.77102 l 7.38559,4.482411 h -6.73499 a 1.25264,1.25264 0 0 0 -1.25419,1.25212 1.25264,1.25264 0 0 0 1.25419,1.25419 h 6.73292 l -7.38352,4.48241 a 1.25,1.25 0 0 0 -0.56431,0.77153 1.25,1.25 0 0 0 0.14469,0.94516 1.25,1.25 0 0 0 1.71876,0.41962 l 10.90166,-6.61872 h 10.16579 l -7.18664,7.18664 -12.39046,3.03031 a 1.25,1.25 0 0 0 -0.91829,1.51205 1.25,1.25 0 0 0 0.56637,0.77101 1.25,1.25 0 0 0 0.94413,0.14624 l 8.39174,-2.05258 -4.7625,4.76198 a 1.25264,1.25264 0 0 0 -10e-4,1.7725 1.25264,1.25264 0 0 0 1.77354,0 l 4.76095,-4.76095 -2.05156,8.3907 a 1.25,1.25 0 0 0 0.14677,0.94465 1.25,1.25 0 0 0 0.77049,0.56586 1.25,1.25 0 0 0 1.51205,-0.91881 l 3.02876,-12.38891 7.18922,-7.18922 v 10.16785 l -6.61871,10.90373 a 1.25,1.25 0 0 0 0.41961,1.71669 1.25,1.25 0 0 0 1.71669,-0.42013 l 4.48241,-7.3825 v 6.73448 a 1.25264,1.25264 0 0 0 1.25419,1.2516 1.25264,1.25264 0 0 0 1.25212,-1.2516 v -6.73603 l 4.48242,7.38405 a 1.25,1.25 0 0 0 1.71669,0.42013 1.25,1.25 0 0 0 0.41961,-1.71669 l -6.61872,-10.9058 V 42.52568 l 7.18974,7.18974 3.02979,12.39046 a 1.25,1.25 0 0 0 1.5105,0.91674 1.25,1.25 0 0 0 0.91726,-1.51051 l -2.05104,-8.39018 4.76199,4.76198 a 1.25264,1.25264 0 0 0 1.77198,-0.002 1.25264,1.25264 0 0 0 5.2e-4,-1.77043 l -4.76302,-4.76302 8.3907,2.05156 a 1.25,1.25 0 0 0 1.51102,-0.91674 1.25,1.25 0 0 0 -0.91725,-1.5105 l -12.3915,-3.03186 -7.18715,-7.18716 h 10.16682 l 10.90372,6.61872 a 1.25,1.25 0 0 0 1.7167,-0.41961 1.25,1.25 0 0 0 -0.42013,-1.71669 l -7.3825,-4.48242 h 6.73447 a 1.25264,1.25264 0 0 0 1.25161,-1.25419 1.25264,1.25264 0 0 0 -1.25161,-1.25212 h -6.73602 l 7.38405,-4.482411 a 1.25,1.25 0 0 0 0.42013,-1.71669 1.25,1.25 0 0 0 -1.7167,-0.41961 l -10.90579,6.618711 h -10.1663 l 7.19025,-7.19025 12.38995,-3.03031 a 1.25,1.25 0 0 0 0.91725,-1.5105 1.25,1.25 0 0 0 -1.51102,-0.91674 l -8.38966,2.05052 4.76198,-4.76198 a 1.25264,1.25264 0 0 0 -0.002,-1.77199 1.25264,1.25264 0 0 0 -1.77043,0 l -4.76302,4.76302 2.05155,-8.39071 a 1.25,1.25 0 0 0 -0.91674,-1.51101 1.25,1.25 0 0 0 -1.5105,0.91674 l -3.03134,12.392 -7.18819,7.1882 V 26.30968 l 6.61872,-10.90424 a 1.25,1.25 0 0 0 -0.41961,-1.71876 1.25,1.25 0 0 0 -0.94568,-0.14469 1.25,1.25 0 0 0 -0.77101,0.5643 l -4.48242,7.3856 V 14.7569 a 1.25264,1.25264 0 0 0 -1.25212,-1.25419 z"/>
  </g>
</svg>
