<?xml version="1.0" encoding="UTF-8" standalone="no"?>
<svg
   width="80"
   height="80"
   viewBox="0 0 21.166667 21.166667"
   version="1.1"
   id="svg1"
   xmlns="http://www.w3.org/2000/svg"
   xmlns:svg="http://www.w3.org/2000/svg">
  <path
     style="color:#000000;fill:#5fa2d1;stroke-linejoin:round;stroke-miterlimit:0;-inkscape-stroke:none"
     d="M 20.637504,10.583337 A 10.054167,10.054167 0 0 1 10.583337,20.637504 10.054167,10.054167 0 0 1 0.52917004,10.583337 10.054167,10.054167 0 0 1 10.583337,0.52917004 10.054167,10.054167 0 0 1 20.637504,10.583337 Z"
     id="path1" />
  <path
     style="color:#000000;fill:#cccccc;stroke-linejoin:round;stroke-miterlimit:0;-inkscape-stroke:none"
     d="M 10.583984,0 C 4.7452425,2.3229138e-8 2.3229137e-8,4.7452425 0,10.583984 c 0,5.838742 4.7452424,10.582032 10.583984,10.582032 5.838742,0 10.582032,-4.74329 10.582032,-10.582032 C 21.166016,4.7452424 16.422726,0 10.583984,0 Z m 0,1.0585937 c 5.266774,0 9.523438,4.2586175 9.523438,9.5253903 0,5.266774 -4.256664,9.523438 -9.523438,9.523438 -5.2667728,0 -9.5253902,-4.256664 -9.5253903,-9.523438 10e-8,-5.2667727 4.2586176,-9.5253902 9.5253903,-9.5253903 z"
     id="path4" />
  <path
     id="path2"
     style="color:#000000;fill:#ffffff;fill-opacity:1;stroke-width:0.267933;stroke-linecap:round;stroke-linejoin:round;stroke-miterlimit:0;-inkscape-stroke:none"
     d="m 10.583536,3.6177852 v 1.394e-4 a 0.33562295,0.33562295 0 0 0 -0.336039,0.3360382 v 1.803968 L 9.0465141,3.7796433 A 0.33491561,0.33491561 0 0 0 8.8397962,3.6284463 0.33491561,0.33491561 0 0 0 8.5865571,3.6672161 0.33491561,0.33491561 0 0 0 8.4741299,4.1277251 L 10.247497,7.048634 V 9.7727947 L 8.3216871,7.8469841 7.5097686,4.5271776 A 0.33491561,0.33491561 0 0 0 7.1046412,4.2809985 0.33491561,0.33491561 0 0 0 6.8980626,4.4327501 0.33491561,0.33491561 0 0 0 6.8588775,4.6857106 L 7.4089724,6.9342694 6.1329439,5.6582409 a 0.33562295,0.33562295 0 0 0 -0.4747737,-2.679e-4 0.33562295,0.33562295 0 0 0 0,0.475189 L 6.9336467,7.4087754 4.6856422,6.8590959 A 0.33491561,0.33491561 0 0 0 4.4325425,6.898281 0.33491561,0.33491561 0 0 0 4.2809302,7.1048596 0.33491561,0.33491561 0 0 0 4.5269699,7.5099869 L 7.8463614,8.3213506 9.7728657,10.247855 H 7.0492596 L 4.1276567,8.474485 A 0.33491561,0.33491561 0 0 0 3.6671451,8.5869145 0.33491561,0.33491561 0 0 0 3.628378,8.8402902 0.33491561,0.33491561 0 0 0 3.7795749,9.0468715 L 5.7584145,10.247855 H 3.9538918 a 0.33562295,0.33562295 0 0 0 -0.3360382,0.335484 0.33562295,0.33562295 0 0 0 0.3360382,0.336038 h 1.803968 L 3.7795749,12.12036 a 0.33491561,0.33491561 0 0 0 -0.1511969,0.206718 0.33491561,0.33491561 0 0 0 0.038767,0.253239 0.33491561,0.33491561 0 0 0 0.4605116,0.11243 l 2.920909,-1.77337 H 9.7723111 L 7.8467767,12.844911 4.5269699,13.65683 a 0.33491561,0.33491561 0 0 0 -0.2460397,0.405127 0.33491561,0.33491561 0 0 0 0.1517489,0.206579 0.33491561,0.33491561 0 0 0 0.2529631,0.03918 l 2.2484198,-0.549953 -1.2760285,1.27589 a 0.33562295,0.33562295 0 0 0 -2.679e-4,0.47491 0.33562295,0.33562295 0 0 0 0.475189,0 L 7.4085678,14.23295 6.8588882,16.481091 a 0.33491561,0.33491561 0 0 0 0.039325,0.253102 0.33491561,0.33491561 0 0 0 0.2064393,0.151613 0.33491561,0.33491561 0 0 0 0.4051273,-0.24618 l 0.8115032,-3.319391 1.926226,-1.926226 v 2.724298 L 8.4741412,17.03977 a 0.33491561,0.33491561 0 0 0 0.1124271,0.459957 0.33491561,0.33491561 0 0 0 0.459957,-0.112566 l 1.2009837,-1.978012 v 1.804386 a 0.33562295,0.33562295 0 0 0 0.336038,0.335344 0.33562295,0.33562295 0 0 0 0.335484,-0.335344 v -1.804801 l 1.200986,1.978427 a 0.33491561,0.33491561 0 0 0 0.459956,0.112566 0.33491561,0.33491561 0 0 0 0.112428,-0.459957 l -1.77337,-2.922018 v -2.723743 l 1.926365,1.926365 0.811779,3.319807 a 0.33491561,0.33491561 0 0 0 0.404712,0.245625 0.33491561,0.33491561 0 0 0 0.245763,-0.404715 l -0.54954,-2.248002 1.275891,1.275889 a 0.33562295,0.33562295 0 0 0 0.474771,-5.36e-4 0.33562295,0.33562295 0 0 0 1.4e-4,-0.474355 l -1.276168,-1.276168 2.248141,0.549679 a 0.33491561,0.33491561 0 0 0 0.404852,-0.245624 0.33491561,0.33491561 0 0 0 -0.245762,-0.404712 L 13.31989,12.84493 11.394219,10.919256 h 2.724021 l 2.921461,1.773371 a 0.33491561,0.33491561 0 0 0 0.45996,-0.112428 0.33491561,0.33491561 0 0 0 -0.112567,-0.459957 l -1.978011,-1.200986 h 1.804383 a 0.33562295,0.33562295 0 0 0 0.335347,-0.336038 0.33562295,0.33562295 0 0 0 -0.335347,-0.335483 h -1.804798 l 1.978426,-1.200984 a 0.33491561,0.33491561 0 0 0 0.112567,-0.4599571 0.33491561,0.33491561 0 0 0 -0.45996,-0.1124271 l -2.922015,1.7733682 h -2.723882 l 1.926501,-1.9265021 3.31967,-0.8119185 A 0.33491561,0.33491561 0 0 0 16.885737,7.1046024 0.33491561,0.33491561 0 0 0 16.480885,6.858978 l -2.247862,0.5494009 1.275889,-1.2758892 a 0.33562295,0.33562295 0 0 0 -5.36e-4,-0.4747737 0.33562295,0.33562295 0 0 0 -0.474356,0 L 13.757852,6.9338839 14.307529,4.68574 A 0.33491561,0.33491561 0 0 0 14.061905,4.2808914 0.33491561,0.33491561 0 0 0 13.657193,4.5265158 L 12.844998,7.8467352 10.919049,9.7726875 V 7.0492181 l 1.77337,-2.9216002 A 0.33491561,0.33491561 0 0 0 12.579992,3.6671063 0.33491561,0.33491561 0 0 0 12.326613,3.6283391 0.33491561,0.33491561 0 0 0 12.120035,3.7795334 L 10.919049,5.7583756 V 3.953853 A 0.33562295,0.33562295 0 0 0 10.583565,3.6178147 Z" />
</svg>
