<?xml version="1.0" encoding="UTF-8" standalone="no"?>
<svg
   viewBox="0 0 80 80"
   version="1.0"
   width="80"
   height="80"
   xmlns="http://www.w3.org/2000/svg"
   xmlns:svg="http://www.w3.org/2000/svg">
  <path
     d="M 65.751953,0.00585938 A 14.630199,14.630199 0 0 0 54,5.4238281 l 11.369141,9.2070309 11.371093,9.207032 A 14.630199,14.630199 0 0 0 79.027344,9.3867188 14.630199,14.630199 0 0 0 67.658203,0.1796875 14.630199,14.630199 0 0 0 65.751953,0.00585938 Z"
     style="fill:#99ff34"
     id="right" />
  <path
     d="M 14.248047,0.00585938 A 14.630199,14.630199 0 0 0 12.341797,0.1796875 14.630199,14.630199 0 0 0 0.97265625,9.3867188 14.630199,14.630199 0 0 0 3.2597656,23.837891 L 14.630859,14.630859 26,5.4238281 A 14.630199,14.630199 0 0 0 14.248047,0.00585938 Z"
     style="fill:#99ff34"
     id="left" />
  <path
     d="M 40 24.009766 A 3.571655 3.571655 0 0 0 36.427734 27.580078 L 36.427734 44 A 3.571655 3.571655 0 0 0 36.439453 44.191406 A 3.571655 3.571655 0 0 0 36.453125 44.382812 A 3.571655 3.571655 0 0 0 36.5 44.683594 A 3.571655 3.571655 0 0 0 36.527344 44.824219 A 3.571655 3.571655 0 0 0 36.619141 45.134766 A 3.571655 3.571655 0 0 0 36.667969 45.277344 A 3.571655 3.571655 0 0 0 36.783203 45.535156 A 3.571655 3.571655 0 0 0 36.865234 45.705078 A 3.571655 3.571655 0 0 0 37.011719 45.945312 A 3.571655 3.571655 0 0 0 37.107422 46.091797 A 3.571655 3.571655 0 0 0 37.294922 46.320312 A 3.571655 3.571655 0 0 0 37.410156 46.455078 A 3.571655 3.571655 0 0 0 37.609375 46.642578 A 3.571655 3.571655 0 0 0 37.744141 46.765625 A 3.571655 3.571655 0 0 0 37.994141 46.947266 A 3.571655 3.571655 0 0 0 38.095703 47.021484 L 38.15625 47.058594 A 3.571655 3.571655 0 0 0 38.171875 47.068359 L 53.5 56.730469 A 3.571655 3.571655 0 0 0 58.425781 55.613281 A 3.571655 3.571655 0 0 0 57.308594 50.6875 L 43.572266 42.029297 L 43.572266 27.580078 A 3.571655 3.571655 0 0 0 40 24.009766 Z"
     style="fill:#33ffff"
     id="pointer"/>
  <path
     d="M 40,8 C 20.160053,7.9999998 3.9999994,24.160051 4,44 4,63.839948 20.160053,80 40,80 59.839946,80 76,63.839948 76,44 76.000001,24.160051 59.839947,8 40,8 Z m 0,7.142578 C 55.979583,15.142578 68.857422,28.020415 68.857422,44 68.857422,59.979585 55.979582,72.857422 40,72.857422 24.020418,72.857422 11.142578,59.979585 11.142578,44 11.142578,28.020415 24.020417,15.142578 40,15.142578 Z"
     style="fill:#ff33ff"
     id="case" />
</svg>
