<?xml version="1.0" encoding="UTF-8" standalone="no"?>
<svg 
    width="80" 
    height="80" 
    viewBox="0 0 21.166667 21.166667" 
    version="1.0" 
    xmlns="http://www.w3.org/2000/svg" 
    xmlns:svg="http://www.w3.org/2000/svg">
    <path 
        style="fill:#cf602a" 
        d="M 20.637504,10.583337 A 10.054167,10.054167 0 0 1 10.583337,20.637504 10.054167,10.054167 0 0 1 0.52917004,10.583337 10.054167,10.054167 0 0 1 10.583337,0.52917004 10.054167,10.054167 0 0 1 20.637504,10.583337 Z" 
        id="path3"/>
    <path 
        style="fill:#ffffff" 
        d="M 10.583984,0 C 4.7452425,2.3229138e-8 2.3229137e-8,4.7452425 0,10.583984 c 0,5.838742 4.7452424,10.582032 10.583984,10.582032 5.838742,0 10.582032,-4.74329 10.582032,-10.582032 C 21.166016,4.7452424 16.422726,0 10.583984,0 Z m 0,1.0585937 c 5.266774,0 9.523438,4.2586175 9.523438,9.5253903 0,5.266774 -4.256664,9.523438 -9.523438,9.523438 -5.2667728,0 -9.5253902,-4.256664 -9.5253903,-9.523438 10e-8,-5.2667727 4.2586176,-9.5253902 9.5253903,-9.5253903 z" 
        id="path2"/>
    <path 
        style="fill:#ffffff" 
        d="M 10.583266,2.1907045 C 10.446404,2.5866363 10.309623,2.982745 10.225906,3.4856999 10.14946,3.3996855 10.066624,3.3540807 9.9830507,3.3133202 9.9732524,3.5581006 9.9630147,3.8036741 9.9379132,4.0723488 9.7600757,3.9548604 9.5572535,3.8808601 9.339498,3.8329538 9.2238059,4.2835278 9.1673024,4.7501885 9.1462107,5.2263956 8.9518297,5.1259879 8.7424767,5.0537399 8.5201039,5.0058309 8.2817375,5.3769442 8.136217,5.9130718 8.0867304,6.6199741 7.6014393,6.6319507 7.392237,6.6688424 7.1680619,6.7044318 c 0.056696,0.9530895 0.18103,1.91318 0.5671239,2.9005568 C 6.2691511,8.5255395 4.7314657,8.984473 3.2232565,8.8113484 3.8970489,9.3096278 4.1663545,10.3617 4.4983156,11.303729 l -0.3673287,0.219734 c 0.3941397,0.501111 0.7903014,1.000937 1.2656439,1.452422 l -0.2020101,0.383668 c 0.6111835,0.720803 1.3392834,1.376053 2.1044224,2.017886 -0.1139436,0.169655 -0.2484993,0.358239 -0.3327145,0.549679 0.4012096,0.121489 1.7561584,0.555111 2.3352321,0.53791 0.4116091,-0.044 0.7136033,-0.338852 1.0711103,-0.632061 l -0.08349,3.142995 h 0.294085 0.294084 L 10.794,15.832967 c 0.357507,0.293209 0.659363,0.588063 1.070972,0.632061 0.579074,0.0172 1.934022,-0.416421 2.335232,-0.53791 -0.08422,-0.19144 -0.218632,-0.380024 -0.332576,-0.549679 0.765139,-0.641833 1.493239,-1.297083 2.104422,-2.017886 l -0.202148,-0.383668 c 0.475342,-0.451485 0.871504,-0.951311 1.265644,-1.452422 l -0.36733,-0.219734 C 17.000177,10.3617 17.269621,9.3096278 17.943414,8.8113484 16.435204,8.984473 14.897519,8.5255395 13.431484,9.6049886 13.817578,8.6176118 13.941912,7.6575213 13.998608,6.7044318 13.774433,6.6688424 13.565231,6.6319588 13.07994,6.6199741 13.030453,5.9130718 12.884794,5.3769442 12.646428,5.0058309 c -0.222373,0.047909 -0.431726,0.120157 -0.626107,0.2205647 -0.02109,-0.4762071 -0.07746,-0.9428678 -0.193149,-1.3934418 -0.217756,0.047906 -0.420578,0.1219066 -0.598415,0.239395 -0.0251,-0.2686747 -0.03548,-0.5142482 -0.04528,-0.7590286 -0.08357,0.04076 -0.166271,0.086365 -0.242717,0.1723797 C 10.857047,2.982745 10.720128,2.5866363 10.583266,2.1907045 Z"
        id="path1" />
</svg>
