<?xml version="1.0" encoding="UTF-8" standalone="no"?>
<svg 
    width="80" 
    height="80" 
    viewBox="0 0 80 80" 
    version="1.0" 
    xmlns="http://www.w3.org/2000/svg" 
    xmlns:svg="http://www.w3.org/2000/svg">
    <path 
        d="M 40.000003,0.98679491 C 17.899999,0.98679491 0,18.886795 0,40.986795 c 0,17.699999 11.45,32.649999 27.350002,37.949998 2,0.35 2.75,-0.85 2.75,-1.9 0,-0.949999 -0.05,-4.099999 -0.05,-7.450001 C 20,71.436794 17.4,67.136793 16.6,64.886793 c -0.45,-1.15 -2.4,-4.699999 -4.1,-5.649999 -1.4,-0.75 -3.4000003,-2.599999 -0.05,-2.649999 3.15,-0.05 5.399999,2.899999 6.15,4.099999 3.599999,6.049999 9.350002,4.349999 11.650002,3.299999 0.35,-2.599999 1.4,-4.349999 2.549999,-5.349999 C 23.899999,57.636794 14.6,54.186792 14.6,38.886793 c 0,-4.349999 1.55,-7.949999 4.1,-10.749998 -0.4,-1 -1.8,-5.1 0.399999,-10.6 0,0 3.35,-1.05 11.000003,4.1 3.199999,-0.9 6.599999,-1.35 10.000001,-1.35 3.399999,0 6.799998,0.45 9.999998,1.35 7.650001,-5.2 11,-4.1 11,-4.1 2.2,5.5 0.8,9.6 0.4,10.6 2.55,2.799999 4.099999,6.349999 4.099999,10.749998 0,15.349999 -9.349998,18.750001 -18.249999,19.750001 1.45,1.25 2.7,3.65 2.7,7.399999 0,5.350001 -0.05,9.650001 -0.05,11 0,1.05 0.75,2.3 2.749999,1.9 C 68.55,73.636794 80,58.636794 80,40.986795 80,18.886795 62.100001,0.98679491 40.000003,0.98679491 Z"
        style="fill:#000000"
        id="path1" />
</svg>
