<?xml version="1.0" encoding="UTF-8" standalone="no"?>
<svg
   width="80"
   height="80"
   viewBox="0 0 60 60"
   version="1.0"
   xmlns="http://www.w3.org/2000/svg"
   xmlns:svg="http://www.w3.org/2000/svg">
  <path
     d="M 27,17.625 A 9.375,9.375 0 0 1 17.625,27 9.375,9.375 0 0 1 8.25,17.625 9.375,9.375 0 0 1 17.625,8.25 9.375,9.375 0 0 1 27,17.625 Z"
     style="fill:#ffdc32"
     id="sun" />
  <path
     d="M 45.648926,24.700195 55.5,34.55127 V 55.5 l -6.451166,0 -17.351082,-17.177758 Z"
     style="fill:#ff8447"
     id="hill_orange" />
  <path
     transform="rotate(45)"
     d="M 39.244427,4.5616674 73.92719,4.5616635 42.426408,36.062446 39.244427,32.880465 Z"
     style="fill:#2bd947"
     id="hill_green" />
  <path
     d="M 3,0 C 1.3769188,0 0,1.3769188 0,3 v 54 c 0,1.623081 1.3769188,3 3,3 h 54 c 1.623081,0 3,-1.376919 3,-3 V 3 C 60,1.3769188 58.623081,0 57,0 Z m 1.5,4.5 h 51 v 51 h -51 Z"
     style="fill:#32bbff"
     id="frame" />
</svg>
