<?xml version="1.0" encoding="UTF-8" standalone="no"?>
<svg 
    width="80" 
    height="80" 
    viewBox="0 0 60 60" 
    version="1.0" 
    xmlns="http://www.w3.org/2000/svg" 
    xmlns:svg="http://www.w3.org/2000/svg">
    <path   
        style="fill:#e7e7e7" 
        d="M 2.324707 0 C 1.0755783 0 -4.4408877e-16 1.0755783 0 2.324707 L 0 57.675293 C 0 58.924422 1.0755783 60 2.324707 60 L 57.675293 60 C 58.924422 60 60 58.924422 60 57.675293 L 60 2.324707 C 60 1.0755783 58.924422 -4.4408877e-16 57.675293 0 L 2.324707 0 z M 4.5 4.5 L 55.5 4.5 L 55.5 34.55127 L 45.648926 24.700195 L 31.860352 38.48877 L 24.524414 30.975586 L 4.5 51 L 4.5 4.5 z M 16.125 6.75 A 9.375 9.375 0 0 0 6.75 16.125 A 9.375 9.375 0 0 0 16.125 25.5 A 9.375 9.375 0 0 0 25.5 16.125 A 9.375 9.375 0 0 0 16.125 6.75 z "
        id="rect1" />
</svg>
