<?xml version="1.0" encoding="UTF-8" standalone="no"?>
<svg
    width="80"
    height="80"
    viewBox="0 0 21.166667 21.166667"
    version="1.0"
    xmlns="http://www.w3.org/2000/svg"
    xmlns:svg="http://www.w3.org/2000/svg">
    <path
        style="fill:#78b53d"
        d="M 20.637504,10.583337 A 10.054167,10.054167 0 0 1 10.583337,20.637504 10.054167,10.054167 0 0 1 0.52917004,10.583337 10.054167,10.054167 0 0 1 10.583337,0.52917004 10.054167,10.054167 0 0 1 20.637504,10.583337 Z"
        id="path3" />
    <path
        style="fill:#ffffff"
        d="M 10.583984,0 C 4.7452425,2.3229138e-8 2.3229137e-8,4.7452425 0,10.583984 c 0,5.838742 4.7452424,10.582032 10.583984,10.582032 5.838742,0 10.582032,-4.74329 10.582032,-10.582032 C 21.166016,4.7452424 16.422726,0 10.583984,0 Z m 0,1.0585937 c 5.266774,0 9.523438,4.2586175 9.523438,9.5253903 0,5.266774 -4.256664,9.523438 -9.523438,9.523438 -5.2667728,0 -9.5253902,-4.256664 -9.5253903,-9.523438 10e-8,-5.2667727 4.2586176,-9.5253902 9.5253903,-9.5253903 z"
        id="path2" />
    <path
        style="fill:#ffffff"
        d="m 10.583332,3.7872604 c -0.8878452,0 -1.6076351,0.7196479 -1.6076351,1.6074958 0,0.106597 0.010942,0.2105976 0.030737,0.3113938 A 2.5453587,2.5453587 0 0 0 8.9470361,5.750734 C 8.856968,5.7004833 8.7611232,5.657815 8.6593222,5.6247361 7.8149249,5.3503759 6.9080431,5.8124067 6.6336802,6.6568013 6.35932,7.5011959 6.8213562,8.4082197 7.6657455,8.6825799 7.7997787,8.7261297 7.9352266,8.7490781 8.0696296,8.7569312 7.9655191,8.8422838 7.8694519,8.9404703 7.7866205,9.0544783 7.264755,9.7727624 7.4240329,10.778123 8.1423197,11.299988 c 0.6644029,0.482718 1.5737122,0.381563 2.1195143,-0.204641 v 5.180681 C 9.2644075,14.412887 7.609343,14.109855 6.5107314,14.109855 c 0,3.094639 2.2899359,4.093371 4.0726006,4.093371 1.782673,0 4.072603,-0.998732 4.072603,-4.093371 -1.098563,0 -2.753526,0.303 -3.750963,2.165897 v -5.180266 c 0.545816,0.586073 1.45502,0.687185 2.119375,0.204502 0.718281,-0.521863 0.877562,-1.5272256 0.355696,-2.2455097 -0.08283,-0.114008 -0.178895,-0.2121945 -0.283006,-0.2975471 0.134382,-0.00785 0.269872,-0.03081 0.403882,-0.074351 C 14.345313,8.40822 14.807344,7.5011962 14.532984,6.6568016 14.258621,5.812407 13.351739,5.3503762 12.507345,5.6247364 c -0.101097,0.032849 -0.196387,0.075238 -0.285917,0.125028 a 2.5453587,2.5453587 0 0 0 -0.06037,-0.049016 c 0.01912,-0.099135 0.02991,-0.2012735 0.02991,-0.3059923 0,-0.8878479 -0.719784,-1.6074958 -1.607635,-1.6074958 z"
        id="path1" />
</svg>
